<svg xmlns="http://www.w3.org/2000/svg" viewBox="0 0 1600 1000"><defs><linearGradient id="bg" x1="0" y1="0" x2="1" y2="1"><stop stop-color="#050607"/><stop offset=".5" stop-color="#182024"/><stop offset="1" stop-color="#070809"/></linearGradient><radialGradient id="glow"><stop stop-color="#d8ff3e" stop-opacity=".34"/><stop offset="1" stop-color="#d8ff3e" stop-opacity="0"/></radialGradient><linearGradient id="car" x1="0" y1="0" x2="1" y2="1"><stop stop-color="#555b60"/><stop offset=".35" stop-color="#121517"/><stop offset=".7" stop-color="#737a7e"/><stop offset="1" stop-color="#101214"/></linearGradient></defs><rect width="1600" height="1000" fill="url(#bg)"/><circle cx="1280" cy="170" r="430" fill="url(#glow)"/><path d="M120 730 Q260 520 590 470 L1030 470 Q1300 520 1490 730 L1430 790 L180 790Z" fill="#080a0b" stroke="#8c9498" stroke-width="5"/><path d="M440 555 Q620 455 1010 500 L1215 610 L1240 680 L365 680Z" fill="url(#car)"/><path d="M560 545 L700 495 L970 505 L1080 565" fill="none" stroke="#d8ff3e" stroke-width="5" opacity=".9"/><circle cx="430" cy="735" r="92" fill="#050607" stroke="#555d62" stroke-width="18"/><circle cx="1190" cy="735" r="92" fill="#050607" stroke="#555d62" stroke-width="18"/><path d="M220 850 H1390" stroke="#d8ff3e" stroke-width="3" opacity=".35"/><circle cx="300" cy="160" r="130" fill="#fff" opacity=".025"/></svg>